<svg id="visual" viewBox="0 0 900 600" width="900" height="600" xmlns="http://www.w3.org/2000/svg" xmlns:xlink="http://www.w3.org/1999/xlink" version="1.1"><rect x="0" y="0" width="900" height="600" fill="#fff"></rect><path d="M0 475L21.5 468.7C43 462.3 86 449.7 128.8 434.2C171.7 418.7 214.3 400.3 257.2 412.7C300 425 343 468 385.8 476.8C428.7 485.7 471.3 460.3 514.2 444C557 427.7 600 420.3 642.8 433.7C685.7 447 728.3 481 771.2 483.7C814 486.3 857 457.7 878.5 443.3L900 429L900 601L878.5 601C857 601 814 601 771.2 601C728.3 601 685.7 601 642.8 601C600 601 557 601 514.2 601C471.3 601 428.7 601 385.8 601C343 601 300 601 257.2 601C214.3 601 171.7 601 128.8 601C86 601 43 601 21.5 601L0 601Z" fill="#0066FF" stroke-linecap="round" stroke-linejoin="miter"></path></svg>